<svg width="29" height="29" viewBox="0 0 29 29" fill="none" xmlns="http://www.w3.org/2000/svg">
<g filter="url(#filter0_ii_33_547)">
<path d="M19.7061 3.6001C24.7285 3.60031 28.7998 7.39938 28.7998 12.0854C28.7998 13.1716 28.5783 14.209 28.1797 15.1636C28.579 16.0263 28.8008 16.9698 28.8008 17.9595C28.8008 22.0447 25.0507 25.3567 20.4248 25.3569C17.5879 25.3569 15.0817 24.1101 13.5664 22.2046C12.7527 22.8152 11.7277 23.1811 10.6123 23.1812C7.96896 23.1812 5.82544 21.1359 5.8252 18.6128C5.8252 17.8793 6.00725 17.1861 6.3291 16.5718C3.26465 15.1673 1.51803 13.195 0 11.7856C2.39783 12.7332 4.16685 13.0685 5.60449 12.8608C5.43712 12.3386 5.34572 11.7867 5.3457 11.2153C5.3457 7.97111 8.239 5.34141 11.8076 5.34131C12.5053 5.34131 13.1771 5.44242 13.8066 5.62842C15.3948 4.3642 17.4548 3.6001 19.7061 3.6001Z" fill="url(#paint0_radial_33_547)"/>
</g>
<defs>
<filter id="filter0_ii_33_547" x="-0.84" y="2.7601" width="30.4808" height="23.4368" filterUnits="userSpaceOnUse" color-interpolation-filters="sRGB">
<feFlood flood-opacity="0" result="BackgroundImageFix"/>
<feBlend mode="normal" in="SourceGraphic" in2="BackgroundImageFix" result="shape"/>
<feColorMatrix in="SourceAlpha" type="matrix" values="0 0 0 0 0 0 0 0 0 0 0 0 0 0 0 0 0 0 127 0" result="hardAlpha"/>
<feOffset dx="0.84" dy="0.84"/>
<feGaussianBlur stdDeviation="6.6"/>
<feComposite in2="hardAlpha" operator="arithmetic" k2="-1" k3="1"/>
<feColorMatrix type="matrix" values="0 0 0 0 1 0 0 0 0 1 0 0 0 0 1 0 0 0 0.15 0"/>
<feBlend mode="normal" in2="shape" result="effect1_innerShadow_33_547"/>
<feColorMatrix in="SourceAlpha" type="matrix" values="0 0 0 0 0 0 0 0 0 0 0 0 0 0 0 0 0 0 127 0" result="hardAlpha"/>
<feOffset dx="-0.84" dy="-0.84"/>
<feGaussianBlur stdDeviation="2.4"/>
<feComposite in2="hardAlpha" operator="arithmetic" k2="-1" k3="1"/>
<feColorMatrix type="matrix" values="0 0 0 0 0 0 0 0 0 0 0 0 0 0 0 0 0 0 0.01 0"/>
<feBlend mode="normal" in2="effect1_innerShadow_33_547" result="effect2_innerShadow_33_547"/>
</filter>
<radialGradient id="paint0_radial_33_547" cx="0" cy="0" r="1" gradientUnits="userSpaceOnUse" gradientTransform="translate(31.9329 -4.41036) rotate(138.132) scale(43.6746 87.4336)">
<stop stop-color="#8C68E0"/>
<stop offset="0.444321" stop-color="#688AE0"/>
<stop offset="0.959228" stop-color="#68B8EA"/>
</radialGradient>
</defs>
</svg>
