<svg width="20" height="20" viewBox="0 0 20 20" fill="none" xmlns="http://www.w3.org/2000/svg">
<path d="M9.99992 12.9791C9.88881 12.9791 9.78464 12.9619 9.68742 12.9274C9.5902 12.893 9.49992 12.8338 9.41659 12.7499L6.41658 9.74992C6.24992 9.58325 6.16992 9.38881 6.17659 9.16659C6.18325 8.94437 6.26325 8.74992 6.41658 8.58325C6.58325 8.41659 6.78131 8.32992 7.01075 8.32325C7.2402 8.31659 7.43797 8.39631 7.60408 8.56242L9.16658 10.1249V4.16659C9.16658 3.93048 9.24659 3.7327 9.40659 3.57325C9.56659 3.41381 9.76436 3.33381 9.99992 3.33325C10.2355 3.3327 10.4335 3.4127 10.5941 3.57325C10.7546 3.73381 10.8344 3.93159 10.8333 4.16659V10.1249L12.3958 8.56242C12.5624 8.39575 12.7605 8.31575 12.9899 8.32242C13.2194 8.32909 13.4171 8.41603 13.5833 8.58325C13.736 8.74992 13.816 8.94437 13.8233 9.16659C13.8305 9.38881 13.7505 9.58325 13.5833 9.74992L10.5833 12.7499C10.4999 12.8333 10.4096 12.8924 10.3124 12.9274C10.2152 12.9624 10.111 12.9796 9.99992 12.9791ZM4.99992 16.6666C4.54159 16.6666 4.14936 16.5035 3.82325 16.1774C3.49714 15.8513 3.33381 15.4588 3.33325 14.9999V13.3333C3.33325 13.0971 3.41325 12.8994 3.57325 12.7399C3.73325 12.5805 3.93103 12.5005 4.16659 12.4999C4.40214 12.4994 4.6002 12.5794 4.76075 12.7399C4.92131 12.9005 5.00103 13.0983 4.99992 13.3333V14.9999H14.9999V13.3333C14.9999 13.0971 15.0799 12.8994 15.2399 12.7399C15.3999 12.5805 15.5977 12.5005 15.8333 12.4999C16.0688 12.4994 16.2669 12.5794 16.4274 12.7399C16.588 12.9005 16.6677 13.0983 16.6666 13.3333V14.9999C16.6666 15.4583 16.5035 15.8508 16.1774 16.1774C15.8513 16.5041 15.4588 16.6671 14.9999 16.6666H4.99992Z" fill="#7A7A7A"/>
</svg>
