<svg width="19" height="18" viewBox="0 0 19 18" fill="none" xmlns="http://www.w3.org/2000/svg">
<path d="M2 13.5C2 12.345 2 11.7675 2.26025 11.343C2.40575 11.1052 2.60525 10.9058 2.843 10.7603C3.26675 10.5 3.845 10.5 5 10.5C6.155 10.5 6.7325 10.5 7.157 10.7603C7.39475 10.9058 7.59425 11.1052 7.73975 11.343C8 11.7667 8 12.345 8 13.5C8 14.655 8 15.2325 7.73975 15.6578C7.59425 15.8948 7.39475 16.0942 7.157 16.2397C6.73325 16.5 6.155 16.5 5 16.5C3.845 16.5 3.2675 16.5 2.843 16.2397C2.60551 16.0945 2.40581 15.8951 2.26025 15.6578C2 15.2325 2 14.655 2 13.5ZM11 13.5C11 12.345 11 11.7675 11.2603 11.343C11.4058 11.1052 11.6052 10.9058 11.843 10.7603C12.2667 10.5 12.845 10.5 14 10.5C15.155 10.5 15.7325 10.5 16.1578 10.7603C16.3948 10.9058 16.5942 11.1052 16.7397 11.343C17 11.7667 17 12.345 17 13.5C17 14.655 17 15.2325 16.7397 15.6578C16.5942 15.8948 16.3948 16.0942 16.1578 16.2397C15.7325 16.5 15.155 16.5 14 16.5C12.845 16.5 12.2675 16.5 11.843 16.2397C11.6055 16.0945 11.4058 15.8951 11.2603 15.6578C11 15.2325 11 14.655 11 13.5ZM2 4.5C2 3.345 2 2.7675 2.26025 2.343C2.40575 2.10525 2.60525 1.90575 2.843 1.76025C3.26675 1.5 3.845 1.5 5 1.5C6.155 1.5 6.7325 1.5 7.157 1.76025C7.39475 1.90575 7.59425 2.10525 7.73975 2.343C8 2.76675 8 3.345 8 4.5C8 5.655 8 6.2325 7.73975 6.657C7.59425 6.89475 7.39475 7.09425 7.157 7.23975C6.73325 7.5 6.155 7.5 5 7.5C3.845 7.5 3.2675 7.5 2.843 7.23975C2.60543 7.09428 2.40572 6.89457 2.26025 6.657C2 6.23325 2 5.655 2 4.5ZM11 4.5C11 3.345 11 2.7675 11.2603 2.343C11.4058 2.10525 11.6052 1.90575 11.843 1.76025C12.2667 1.5 12.845 1.5 14 1.5C15.155 1.5 15.7325 1.5 16.1578 1.76025C16.3948 1.90575 16.5942 2.10525 16.7397 2.343C17 2.76675 17 3.345 17 4.5C17 5.655 17 6.2325 16.7397 6.657C16.5942 6.89475 16.3948 7.09425 16.1578 7.23975C15.7325 7.5 15.155 7.5 14 7.5C12.845 7.5 12.2675 7.5 11.843 7.23975C11.6054 7.09428 11.4057 6.89457 11.2603 6.657C11 6.23325 11 5.655 11 4.5Z" stroke="#7A7A7A" stroke-width="1.5" stroke-linecap="round" stroke-linejoin="round"/>
</svg>
