<svg width="19" height="18" viewBox="0 0 19 18" fill="none" xmlns="http://www.w3.org/2000/svg">
<g clip-path="url(#clip0_308_2562)">
<path d="M14 6.75H5C3.34315 6.75 2 8.09315 2 9.75V14.25C2 15.9069 3.34315 17.25 5 17.25H14C15.6569 17.25 17 15.9069 17 14.25V9.75C17 8.09315 15.6569 6.75 14 6.75Z" stroke="white" stroke-width="2" stroke-linecap="round" stroke-linejoin="round"/>
<path d="M9.5 3.75C10.3284 3.75 11 3.07843 11 2.25C11 1.42157 10.3284 0.75 9.5 0.75C8.67157 0.75 8 1.42157 8 2.25C8 3.07843 8.67157 3.75 9.5 3.75Z" stroke="white" stroke-width="2" stroke-linecap="round" stroke-linejoin="round"/>
<path d="M9.5 3.75V6.75M7.25 12.75V11.25M11.75 11.25V12.75" stroke="white" stroke-width="2" stroke-linecap="round" stroke-linejoin="round"/>
</g>
<defs>
<clipPath id="clip0_308_2562">
<rect width="18" height="18" fill="white" transform="translate(0.5)"/>
</clipPath>
</defs>
</svg>
