<svg width="20" height="20" viewBox="0 0 20 20" fill="none" xmlns="http://www.w3.org/2000/svg">
<path d="M10.5 5.5C10.5 5.22386 10.2761 5 10 5C9.72386 5 9.5 5.22386 9.5 5.5L10 5.5L10.5 5.5ZM9.64645 15.4136C9.84171 15.6088 10.1583 15.6088 10.3536 15.4136L13.5355 12.2316C13.7308 12.0363 13.7308 11.7198 13.5355 11.5245C13.3403 11.3292 13.0237 11.3292 12.8284 11.5245L10 14.3529L7.17157 11.5245C6.97631 11.3292 6.65973 11.3292 6.46447 11.5245C6.2692 11.7198 6.2692 12.0363 6.46447 12.2316L9.64645 15.4136ZM10 5.5L9.5 5.5L9.5 9.02991L10 9.02991L10.5 9.02991L10.5 5.5L10 5.5ZM10 9.02991L9.5 9.02991L9.5 15.06L10 15.06L10.5 15.06L10.5 9.02991L10 9.02991Z" fill="#7A7A7A"/>
</svg>
